<svg id="_12_alegantto_logo_footer" data-name="12_alegantto logo footer" xmlns="http://www.w3.org/2000/svg" xmlns:xlink="http://www.w3.org/1999/xlink" viewBox="0 0 241.71 47.06"><defs><style>.cls-1{fill:none;}.cls-2{clip-path:url(#clip-path);}.cls-3{fill:#a09c9c;}</style><clipPath id="clip-path" transform="translate(0 0)"><rect class="cls-1" width="241.71" height="47.06"/></clipPath></defs><g class="cls-2"><path class="cls-3" d="M20,22.44v.29H16.55v-.29c.83-.13,1.09-.64.64-1.7L14.75,15H4.16L2,20.74c-.39,1-.23,1.57.64,1.7v.29H0v-.29c.83-.16,1.15-.58,1.54-1.5l7-18.63c.35-1,.48-1.6-.42-1.7V.32h1.6l8.58,20.42c.42,1,.8,1.57,1.66,1.7M14.6,14.6,9.18,1.73,4.32,14.6Zm29.55,5-.58,3.11H29.13v-.29c1-.1,1.09-.61,1.09-1.69V2.27c0-1.09-.07-1.6-1.09-1.66V.32h3.3V.61c-1.05.06-1.12.57-1.12,1.66v20h9c2.3,0,3-1.15,3.52-2.69Zm24.64,0-.61,3.11H53.74v-.29c1.06-.1,1.13-.61,1.13-1.69V2.27c0-1.09-.07-1.6-1.13-1.66V.32H67.57l.58,3.11h-.29C67.38,1.86,66.64.7,64.34.7H56V11.07h6.28c1.85,0,2.17-.54,2.33-1.53h.29V13h-.29c-.16-1-.48-1.54-2.33-1.54H56V22.31h9a3.23,3.23,0,0,0,3.55-2.69ZM99,13.74V14c-1,.1-1.09.6-1.09,1.7V20.3a12.44,12.44,0,0,1-8.07,2.75,11.38,11.38,0,0,1-11.56-11.2v-.33C78.23,4.8,83.07,0,89.37,0a13.09,13.09,0,0,1,7.94,2.69V5.64h-.26C96.38,2,92.93.38,89.37.38c-5.38,0-10,4.2-10,11.14s5,11.11,10.4,11.11a9.8,9.8,0,0,0,7-2.69V15.72c0-1.09-.06-1.6-1.08-1.7v-.29Zm28.33,8.7v.29h-3.46v-.29c.83-.13,1.09-.64.64-1.7L122,15h-10.6l-2.18,5.76c-.38,1-.22,1.57.64,1.7v.29h-2.62v-.29c.83-.16,1.15-.58,1.53-1.5l7-18.63c.35-1,.48-1.6-.42-1.7V.32H117l8.58,20.42c.42,1,.8,1.57,1.66,1.7m-5.41-7.84L116.45,1.73,111.59,14.6ZM155.12.32V.61c-1,.06-1.09.57-1.09,1.66V22.73h-.41L137.87,2.21V20.74c0,1.09.1,1.6,1.12,1.7v.29H136.4v-.29c1-.1,1.09-.61,1.09-1.7V2.27c0-1.09-.07-1.6-1.09-1.66V.32h1.53l15.72,20.52V2.27c0-1.09-.06-1.6-1.09-1.66V.32Zm27.53,3.11h-.29c-.48-1.54-1.21-2.69-3.52-2.69h-4.61v20c0,1.09.07,1.6,1.09,1.67v.29H172v-.29c1-.07,1.12-.58,1.12-1.67V.74h-4.61c-2.3,0-3,1.15-3.52,2.69h-.29L165.3.32H182Zm26.89,0h-.29C208.77,1.89,208,.74,205.73.74h-4.61v20c0,1.09.06,1.6,1.09,1.67v.29h-3.3v-.29c1.06-.07,1.12-.58,1.12-1.67V.74h-4.61c-2.3,0-3,1.15-3.52,2.69h-.29l.58-3.11h16.74Zm32.17,8.1A11.53,11.53,0,1,1,230.19,0a11.52,11.52,0,0,1,11.52,11.53m-1.19,0c0-7.33-5.05-11.14-10.33-11.14S219.85,4.2,219.85,11.52s5.05,11.11,10.34,11.11,10.33-3.81,10.33-11.11M36.79,40.66h.75V46.9h-.75Zm9.25,0h1.08l4.64,5.14V40.66h.76V46.9h-.76l-5-5.57V46.9H46Zm17.36.67h-3v-.67h6.78v.67h-3V46.9H63.4ZM75,40.66H80.6v.67H75.79v2h4V44h-4v2.25h4.92v.66H75Zm13.55,0H92.2a5.39,5.39,0,0,1,.8.06,2.25,2.25,0,0,1,.8.24,1.63,1.63,0,0,1,.61.53,1.55,1.55,0,0,1,.24.92,1.5,1.5,0,0,1-.7,1.33,1.84,1.84,0,0,1-.64.28,2.59,2.59,0,0,1-.62.1l2.06,2.78h-.94l-2-2.76H89.34V46.9h-.75Zm.75,2.81H92a6.34,6.34,0,0,0,.76,0,2,2,0,0,0,.6-.15.87.87,0,0,0,.55-.88.88.88,0,0,0-.15-.55.91.91,0,0,0-.4-.32,1.78,1.78,0,0,0-.6-.16,6.34,6.34,0,0,0-.76,0H89.34Zm13.76-2.81h1.07l4.65,5.14V40.66h.76V46.9h-.76l-5-5.57V46.9h-.72Zm17.52,0h.92l3.2,6.24h-.85l-.8-1.62h-4l-.82,1.62h-.84Zm2.14,4-1.68-3.36-1.68,3.36Zm11.13-3.28h-3v-.67h6.79v.67h-3V46.9h-.76Zm11.63-.67h.76V46.9h-.76Zm8.84,3.16a3.32,3.32,0,0,1,.28-1.39,3,3,0,0,1,.75-1,3.33,3.33,0,0,1,1.16-.65,4.76,4.76,0,0,1,2.94,0,3.2,3.2,0,0,1,1.15.65,2.89,2.89,0,0,1,.76,1,3.32,3.32,0,0,1,.28,1.39,3.17,3.17,0,0,1-.32,1.45,3,3,0,0,1-.83,1,3.66,3.66,0,0,1-1.18.6,4.67,4.67,0,0,1-2.67,0,3.71,3.71,0,0,1-1.17-.6,3,3,0,0,1-.83-1,3.17,3.17,0,0,1-.32-1.45m.78-.14a2.75,2.75,0,0,0,.23,1.23,2.48,2.48,0,0,0,.63.84,2.63,2.63,0,0,0,.92.49,4.07,4.07,0,0,0,2.19,0,2.63,2.63,0,0,0,.92-.49,2.38,2.38,0,0,0,.64-.84,2.89,2.89,0,0,0,.23-1.23,2.38,2.38,0,0,0-.19-1,2.7,2.7,0,0,0-.57-.81,2.81,2.81,0,0,0-.91-.55,3.75,3.75,0,0,0-2.43,0,2.87,2.87,0,0,0-.9.55,2.39,2.39,0,0,0-.57.81,2.56,2.56,0,0,0-.2,1m14.62-3h1.08l4.64,5.14V40.66h.76V46.9h-.76l-5-5.57V46.9h-.72Zm17.52,0h.93l3.2,6.24h-.85l-.81-1.62h-4l-.82,1.62h-.84Zm2.14,4-1.67-3.36-1.68,3.36Zm9.83-4H200v5.58h4.93v.66h-5.68Z" transform="translate(0 0)"/></g></svg>